<svg xmlns="http://www.w3.org/2000/svg" xmlns:xlink="http://www.w3.org/1999/xlink" width="55px" height="41px">
    <path fill="#8e56ff" d="M53.367,38.166 L34.933,38.166 L34.933,39.212 C34.933,39.791 34.464,40.260 33.885,40.260 L21.317,40.260 C20.738,40.260 20.269,39.791 20.269,39.212 L20.269,38.166 L1.835,38.166 C0.447,38.111 0.445,36.126 1.835,36.071 L20.269,36.071 L20.269,35.024 C20.269,34.446 20.738,33.977 21.317,33.977 L26.554,33.977 L26.554,31.882 L12.937,31.882 C12.359,31.882 11.890,31.414 11.890,30.836 L11.890,18.270 C11.890,17.692 12.359,17.224 12.937,17.224 L13.985,17.224 L13.985,15.129 L12.937,15.129 C12.359,15.129 11.890,14.660 11.890,14.082 L11.890,1.516 C11.890,0.938 12.359,0.469 12.937,0.469 L42.264,0.469 C42.843,0.469 43.312,0.938 43.312,1.516 L43.312,14.082 C43.312,14.660 42.843,15.129 42.264,15.129 L41.217,15.129 L41.217,17.224 L42.264,17.224 C42.843,17.224 43.312,17.692 43.312,18.270 L43.312,30.836 C43.312,31.414 42.843,31.882 42.264,31.882 L28.648,31.882 L28.648,33.977 L33.885,33.977 C34.464,33.977 34.933,34.446 34.933,35.024 L34.933,36.071 L53.367,36.071 C54.755,36.126 54.757,38.110 53.367,38.166 ZM41.217,2.563 L13.985,2.563 L13.985,8.846 L25.072,8.846 L28.955,4.964 C29.151,4.769 29.418,4.658 29.696,4.658 L41.217,4.658 L41.217,2.563 ZM41.217,6.752 L30.129,6.752 L26.247,10.633 C26.050,10.830 25.784,10.940 25.506,10.940 L13.985,10.940 L13.985,13.035 L41.217,13.035 L41.217,6.752 ZM16.080,15.129 L16.080,17.224 L39.122,17.224 L39.122,15.129 L16.080,15.129 ZM41.217,19.317 L13.985,19.317 L13.985,25.600 L25.072,25.600 L28.955,21.718 C29.151,21.523 29.418,21.412 29.696,21.412 L41.217,21.412 L41.217,19.317 ZM41.217,29.789 L41.217,23.506 L30.129,23.506 L26.247,27.387 C26.050,27.584 25.784,27.694 25.506,27.694 L13.985,27.694 L13.985,29.789 L41.217,29.789 ZM32.838,36.071 L22.364,36.071 L22.364,38.166 L32.838,38.166 L32.838,36.071 ZM34.933,26.647 C34.933,27.225 34.464,27.694 33.885,27.694 C33.307,27.694 32.838,27.225 32.838,26.647 C32.893,25.259 34.878,25.259 34.933,26.647 ZM39.122,26.647 C39.122,27.225 38.653,27.694 38.075,27.694 C37.496,27.694 37.028,27.225 37.028,26.647 C37.082,25.259 39.067,25.259 39.122,26.647 ZM33.885,8.846 C34.464,8.846 34.933,9.315 34.933,9.894 C34.878,11.282 32.893,11.282 32.838,9.894 C32.838,9.315 33.307,8.846 33.885,8.846 ZM38.075,8.846 C38.653,8.846 39.122,9.315 39.122,9.894 C39.067,11.282 37.083,11.282 37.028,9.894 C37.028,9.315 37.496,8.846 38.075,8.846 Z"/>
</svg>