<svg xmlns="http://www.w3.org/2000/svg" width="49.938" height="33.28" viewBox="0 0 49.938 33.28">
    <path fill="#f8941f" d="M855.149,1497.76h-3.121v-22.87a4.162,4.162,0,0,0-4.163-4.16h-33.3a4.162,4.162,0,0,0-4.163,4.16v22.87h-3.122a1.036,1.036,0,0,0-1.04,1.04v1.04A4.167,4.167,0,0,0,810.4,1504h41.625a4.168,4.168,0,0,0,4.162-4.16v-1.04A1.036,1.036,0,0,0,855.149,1497.76Zm-42.665-22.87a2.081,2.081,0,0,1,2.082-2.08h33.3a2.081,2.081,0,0,1,2.081,2.08v22.87H812.484v-22.87Zm39.544,27.03H810.4a2.088,2.088,0,0,1-2.081-2.08h17.259l0.736,0.73a1.024,1.024,0,0,0,.736.31h8.325a1.024,1.024,0,0,0,.735-0.31l0.736-.73h17.26A2.088,2.088,0,0,1,852.028,1501.92Z" transform="translate(-806.25 -1470.72)"/>
</svg>
