<svg xmlns="http://www.w3.org/2000/svg" xmlns:xlink="http://www.w3.org/1999/xlink" width="43px" height="44px">
  <path  fill="#0ecd73" d="M41.391,43.247 L38.819,43.247 L37.836,43.247 L1.243,43.247 C0.678,43.247 0.220,42.789 0.220,42.224 L0.220,1.251 C0.220,0.686 0.678,0.228 1.243,0.228 L41.391,0.228 C41.956,0.228 42.415,0.686 42.415,1.251 L42.415,42.224 C42.415,42.789 41.956,43.247 41.391,43.247 ZM40.368,2.274 L2.266,2.274 L2.266,9.631 L40.368,9.631 L40.368,2.274 ZM40.368,11.677 L2.266,11.677 L2.266,41.200 L37.836,41.200 L38.819,41.200 L40.368,41.200 L40.368,11.677 ZM27.494,33.222 C27.292,33.443 27.015,33.556 26.736,33.556 C26.491,33.556 26.244,33.468 26.048,33.290 C25.630,32.909 25.600,32.262 25.980,31.844 L30.908,26.425 L26.188,21.018 C25.816,20.592 25.860,19.946 26.285,19.574 C26.711,19.202 27.357,19.245 27.729,19.671 L33.050,25.766 C33.392,26.157 33.386,26.744 33.036,27.127 L27.494,33.222 ZM19.845,32.888 C19.693,33.301 19.301,33.556 18.885,33.556 C18.767,33.556 18.647,33.536 18.530,33.493 C18.000,33.297 17.730,32.708 17.925,32.178 L22.430,19.990 C22.626,19.460 23.215,19.188 23.745,19.385 C24.276,19.580 24.546,20.170 24.350,20.700 L19.845,32.888 ZM11.726,26.453 L16.447,31.859 C16.818,32.286 16.775,32.931 16.349,33.303 C16.155,33.473 15.915,33.556 15.676,33.556 C15.391,33.556 15.107,33.438 14.905,33.206 L9.584,27.112 C9.242,26.720 9.248,26.135 9.598,25.750 L15.140,19.656 C15.521,19.238 16.168,19.207 16.586,19.587 C17.004,19.968 17.035,20.615 16.654,21.034 L11.726,26.453 ZM4.623,4.932 C5.057,4.900 5.475,5.158 5.641,5.561 C5.824,6.006 5.665,6.537 5.264,6.803 C4.903,7.044 4.417,7.027 4.073,6.764 C3.743,6.511 3.597,6.066 3.714,5.666 C3.833,5.258 4.200,4.962 4.623,4.932 ZM8.708,4.933 C9.148,4.893 9.576,5.153 9.745,5.561 C9.930,6.009 9.767,6.542 9.361,6.807 C9.011,7.036 8.545,7.028 8.204,6.784 C7.856,6.535 7.698,6.077 7.818,5.666 C7.935,5.266 8.293,4.971 8.708,4.933 ZM13.050,4.939 C13.476,5.002 13.823,5.331 13.908,5.752 C14.003,6.223 13.739,6.715 13.296,6.898 C12.907,7.058 12.445,6.960 12.157,6.651 C11.865,6.337 11.800,5.866 11.995,5.484 C12.191,5.100 12.623,4.877 13.050,4.939 Z"/>
</svg>