<svg width="26" height="40" viewBox="0 0 31 40" fill="none" xmlns="http://www.w3.org/2000/svg">
    <path d="M28.8827 31.2393L26.7251 38.0491H4.27539L2.11774 31.2393H28.8827V31.2393ZM29.3042 29.2881H1.69624C0.55218 29.2881 -0.260704 30.3613 0.0805067 31.4247L2.42884 38.8393C2.63959 39.532 3.30194 40.0003 4.04457 40.0003H26.9659C27.7085 40.0003 28.3709 39.532 28.5816 38.8393L30.93 31.4247C31.2611 30.3613 30.4483 29.2881 29.3042 29.2881Z" fill="#ffffff"/>
    <path d="M4.48584 30.1174C4.48584 26.9369 7.14528 24.3516 10.4169 24.3516H20.583C23.8546 24.3516 26.514 26.9369 26.514 30.1174" stroke="#ffffff" stroke-width="2" stroke-miterlimit="10"/>
    <path d="M15.0737 34.6436H15.9268" stroke="#ffffff" stroke-width="2" stroke-miterlimit="10" stroke-linecap="round" stroke-linejoin="round"/>
    <path d="M20.4827 24.3512V22.5853C20.4827 21.7268 20.8039 20.9073 21.3558 20.2341C22.5802 18.7512 23.4232 17.1024 23.7242 14.6341C23.7744 14.2146 24.1357 13.8829 24.5672 13.8829C25.059 13.8829 25.4503 13.4927 25.4503 13.0146V12.2439C25.4503 11.7658 25.0489 11.3756 24.5572 11.3756H24.5471C24.1056 11.3756 23.7543 11.0536 23.7042 10.6341C23.0518 5.1512 19.6197 0.975586 15.5051 0.975586C11.3804 0.975586 7.95828 5.1512 7.27586 10.6341C7.22568 11.0536 6.86439 11.3853 6.43286 11.3853H6.41279C5.8508 11.3853 5.38916 11.8341 5.38916 12.3805V12.878C5.38916 13.4244 5.8508 13.8731 6.41279 13.8731C6.85436 13.8731 7.20561 14.1951 7.25578 14.6244C7.55685 17.0927 8.40988 18.7512 9.62419 20.2341C10.1761 20.9073 10.4973 21.7366 10.4973 22.5951V24.3512" stroke="#ffffff" stroke-width="2" stroke-miterlimit="10"/>
    <path d="M6.51318 11.3857H13.9395C15.4449 11.3857 16.8298 10.3223 16.9301 8.86862C16.9603 8.40033 16.9201 7.44423 17.0807 7.00521C17.171 6.7613 17.5724 6.83935 17.6527 7.09301L18.4957 10.4686C18.6763 11.0247 19.2082 11.3955 19.8003 11.3955H24.3565" stroke="#ffffff" stroke-width="2" stroke-miterlimit="10"/>
</svg>
