<svg width="49" height="40" viewBox="0 0 49 40" fill="none" xmlns="http://www.w3.org/2000/svg">
    <path d="M22.9037 25.4288L2.05528 15.0479C0.611854 14.3241 0.583177 12.2764 2.01704 11.5241L22.5118 1.1812C23.1044 0.866916 23.8118 0.87644 24.3949 1.19073L43.6948 12.4479C45.1191 13.2193 45.0617 15.2764 43.5992 15.9717L23.7736 25.4288C23.5059 25.5717 23.1809 25.5717 22.9037 25.4288Z" stroke="#1ab69d" stroke-width="2" stroke-miterlimit="10"/>
    <path d="M7.55176 17.7812V30.5146C7.55176 31.0574 7.77162 31.5717 8.16354 31.9432C11.0504 34.6765 23.8022 45.0955 38.7049 31.9336C39.1255 31.5622 39.3645 31.0193 39.3645 30.4574V18.0098" stroke="#1ab69d" stroke-width="2" stroke-miterlimit="10"/>
    <path d="M44.5837 29.6289V33.1718L40.7505 39.048H48.0441L46.486 35.5908" stroke="#1ab69d" stroke-width="2" stroke-miterlimit="10" stroke-linecap="round" stroke-linejoin="round"/>
    <path d="M22.5405 13.7617L44.5838 15.5141V25.8379" stroke="#1ab69d" stroke-width="2" stroke-miterlimit="10" stroke-linecap="round" stroke-linejoin="round"/>
    <path d="M44.5839 29.6284C45.6345 29.6284 46.4862 28.7798 46.4862 27.7331C46.4862 26.6864 45.6345 25.8379 44.5839 25.8379C43.5333 25.8379 42.6816 26.6864 42.6816 27.7331C42.6816 28.7798 43.5333 29.6284 44.5839 29.6284Z" stroke="#1ab69d" stroke-width="2" stroke-miterlimit="10" stroke-linecap="round" stroke-linejoin="round"/>
</svg>
