<?xml version="1.0" encoding="utf-8"?>
<!-- Generator: Adobe Illustrator 23.0.1, SVG Export Plug-In . SVG Version: 6.00 Build 0)  -->
<svg version="1.1" id="Layer_1" xmlns="http://www.w3.org/2000/svg" xmlns:xlink="http://www.w3.org/1999/xlink" x="0px" y="0px"
	 viewBox="0 0 44 44" style="enable-background:new 0 0 44 44;" xml:space="preserve">
<style type="text/css">
	.st0{fill:none;stroke:#ee4a62;stroke-width:2;stroke-miterlimit:10;}
	.st1{fill:none;stroke:#ee4a62;stroke-width:2;stroke-linecap:round;stroke-miterlimit:10;}
	.st2{fill:none;stroke:#ee4a62;stroke-width:2;stroke-linecap:round;stroke-linejoin:round;stroke-miterlimit:10;}
</style>
<g>
	<circle class="st0" cx="11.88" cy="6.09" r="4.09"/>
	<path class="st0" d="M8.95,14.04l0.79,0.58c1.23,0.91,2.94,0.79,4.03-0.3l0,0c0.58-0.58,1.37-0.9,2.19-0.9h0
		c2.19,0,4.3,0.87,5.85,2.42l0.83,0.83c0.29,0.29,0.68,0.45,1.08,0.45h3.34c1.41,0,2.55,1.14,2.55,2.55v0
		c0,1.41-1.14,2.55-2.55,2.55h-4.83c-0.76,0-1.49-0.3-2.02-0.84l-1.83-1.83c-0.64-0.64-1.73-0.19-1.73,0.72V42h-4.76H7.07V31.56
		c0-1.47-1.2-2.67-2.67-2.67h0c-1.11,0-2.02-0.9-2.02-2.02v-8.72c0-2.62,2.12-4.73,4.74-4.73h0C7.78,13.43,8.42,13.64,8.95,14.04z"
		/>
	<line class="st1" x1="11.81" y1="41.19" x2="11.81" y2="27.07"/>
	<path class="st2" d="M19.21,2h20.76c1.16,0,2.11,0.94,2.11,2.11v21.56c0,1.16-0.94,2.11-2.11,2.11H20.76"/>
	<line class="st2" x1="23.29" y1="6.85" x2="34.96" y2="6.85"/>
	<line class="st2" x1="23.29" y1="11.67" x2="28.83" y2="11.67"/>
	<line class="st2" x1="34.61" y1="11.49" x2="28.97" y2="17.13"/>
	<line class="st1" x1="1.93" y1="42" x2="34.46" y2="42"/>
</g>
</svg>
