<svg width="280" height="275" viewBox="0 0 280 275" fill="none" xmlns="http://www.w3.org/2000/svg">
<path d="M279.997 258.304C243.653 274.165 203.411 278.866 164.384 271.803C125.213 264.714 89.0488 246.098 60.5197 218.336C31.9907 190.575 12.395 154.931 4.24092 115.968C-3.88541 77.1375 -0.279513 36.7707 14.5951 -0.00012207C15 1.42753e-05 15 0 15.6743 -0.00012207C0.746544 36.6873 -2.89361 76.9948 5.21972 115.763C13.333 154.531 32.8307 189.997 61.2171 217.619C89.6035 245.242 125.587 263.766 164.562 270.819C203.537 277.873 243.731 273.135 279.997 257.213C279.997 257.5 279.997 258 279.997 258.304Z" fill="white" fill-opacity="0.2"/>
</svg>
