<svg xmlns="http://www.w3.org/2000/svg" xmlns:xlink="http://www.w3.org/1999/xlink" width="50px" height="45px">
  <path fill="#ee4a62" d="M46.893,6.939 C45.523,6.939 44.358,6.043 43.951,4.807 L38.440,4.807 C39.066,5.219 39.657,5.694 40.206,6.228 C42.388,8.351 43.656,11.173 43.788,14.187 C45.222,14.605 46.274,15.932 46.274,17.501 C46.274,19.404 44.727,20.951 42.827,20.951 C40.926,20.951 39.380,19.404 39.380,17.501 C39.380,15.938 40.424,14.614 41.851,14.192 C41.580,8.997 37.193,4.807 31.974,4.807 L29.669,4.807 C29.488,7.098 27.568,8.907 25.234,8.907 C22.899,8.907 20.979,7.098 20.799,4.807 L18.493,4.807 C13.269,4.807 8.887,8.996 8.616,14.193 C10.040,14.616 11.082,15.940 11.082,17.501 C11.082,19.404 9.536,20.951 7.636,20.951 C5.735,20.951 4.189,19.404 4.189,17.501 C4.189,15.930 5.243,14.602 6.680,14.186 C6.811,11.176 8.076,8.360 10.252,6.237 C10.804,5.699 11.398,5.221 12.028,4.807 L6.517,4.807 C6.110,6.043 4.944,6.939 3.574,6.939 C1.866,6.939 0.477,5.548 0.477,3.838 C0.477,2.129 1.866,0.738 3.574,0.738 C4.944,0.738 6.110,1.633 6.517,2.870 L21.076,2.870 C21.715,1.194 23.337,0.002 25.234,0.002 C27.130,0.002 28.753,1.195 29.392,2.870 L43.951,2.870 C44.358,1.633 45.523,0.738 46.893,0.738 C48.601,0.738 49.991,2.129 49.991,3.838 C49.991,5.548 48.601,6.939 46.893,6.939 ZM41.314,17.501 C41.314,18.336 41.993,19.016 42.827,19.016 C43.661,19.016 44.340,18.336 44.340,17.501 C44.340,16.666 43.661,15.987 42.827,15.987 C41.993,15.987 41.314,16.666 41.314,17.501 ZM6.123,17.501 C6.123,18.336 6.801,19.016 7.636,19.016 C8.469,19.016 9.148,18.336 9.148,17.501 C9.148,16.666 8.469,15.987 7.636,15.987 C6.801,15.987 6.123,16.666 6.123,17.501 ZM3.574,2.674 C2.932,2.674 2.411,3.197 2.411,3.838 C2.411,4.480 2.932,5.003 3.574,5.003 C4.215,5.003 4.737,4.480 4.737,3.838 C4.737,3.197 4.215,2.674 3.574,2.674 ZM25.234,1.938 C23.847,1.938 22.719,3.066 22.719,4.455 C22.719,5.842 23.847,6.971 25.234,6.971 C26.620,6.971 27.748,5.842 27.748,4.455 C27.748,3.066 26.620,1.938 25.234,1.938 ZM46.893,2.674 C46.252,2.674 45.730,3.197 45.730,3.838 C45.730,4.480 46.252,5.003 46.893,5.003 C47.535,5.003 48.057,4.480 48.057,3.838 C48.057,3.197 47.535,2.674 46.893,2.674 ZM20.701,27.609 C20.701,25.107 22.734,23.071 25.234,23.071 C27.733,23.071 29.767,25.107 29.767,27.609 C29.767,30.111 27.733,32.145 25.234,32.145 C22.734,32.145 20.701,30.111 20.701,27.609 ZM27.833,27.609 C27.833,26.174 26.667,25.007 25.234,25.007 C23.801,25.007 22.635,26.174 22.635,27.609 C22.635,29.043 23.801,30.210 25.234,30.210 C26.667,30.210 27.833,29.043 27.833,27.609 ZM31.093,21.691 C30.427,21.710 29.926,20.963 30.200,20.352 C30.614,19.383 32.048,19.670 32.060,20.723 C32.070,21.242 31.613,21.700 31.093,21.691 ZM23.329,11.407 C23.498,11.095 23.824,10.902 24.179,10.902 L26.289,10.902 C26.644,10.902 26.969,11.096 27.139,11.407 L29.853,16.408 C30.108,16.877 29.934,17.466 29.464,17.721 C28.995,17.977 28.408,17.802 28.153,17.332 L26.201,13.736 L26.201,19.701 C26.201,20.235 25.768,20.669 25.234,20.669 C24.700,20.669 24.267,20.235 24.267,19.701 L24.267,13.736 L17.271,26.627 C16.726,27.630 16.715,28.834 17.241,29.848 L19.997,35.164 L30.470,35.164 L33.227,29.848 C33.753,28.834 33.741,27.630 33.197,26.626 L32.043,24.502 C31.788,24.032 31.962,23.444 32.431,23.188 C32.901,22.933 33.488,23.107 33.743,23.577 L34.897,25.702 C35.748,27.272 35.766,29.155 34.944,30.740 L32.650,35.164 L32.919,35.164 C33.452,35.164 33.886,35.598 33.886,36.133 C33.886,36.666 33.452,37.100 32.919,37.100 L32.297,37.100 L33.873,43.413 C33.945,43.702 33.880,44.008 33.696,44.244 C33.513,44.479 33.232,44.616 32.934,44.616 L17.533,44.616 C17.236,44.616 16.954,44.479 16.771,44.244 C16.588,44.008 16.523,43.702 16.595,43.413 L18.171,37.100 L17.549,37.100 C17.015,37.100 16.582,36.666 16.582,36.133 C16.582,35.598 17.015,35.164 17.549,35.164 L17.819,35.164 L15.524,30.740 C14.702,29.155 14.720,27.272 15.571,25.703 L23.329,11.407 ZM31.696,42.679 L30.303,37.100 L20.164,37.100 L18.771,42.679 L31.696,42.679 Z"/>
</svg>