<svg xmlns="http://www.w3.org/2000/svg" xmlns:xlink="http://www.w3.org/1999/xlink" width="46px" height="46px">
  <path fill="#f8b81f" d="M42.502,42.798 C38.501,46.787 32.007,46.787 28.016,42.787 C24.025,38.787 24.025,32.308 28.027,28.308 C28.059,28.277 28.090,28.245 28.122,28.213 C32.123,24.266 38.564,24.309 42.502,28.308 C42.513,28.319 42.513,28.319 42.513,28.319 C46.504,32.319 46.504,38.799 42.502,42.798 ZM35.270,27.422 C30.783,27.422 27.140,31.063 27.140,35.548 C27.140,37.332 27.731,39.073 28.819,40.498 L40.211,29.100 C38.796,28.013 37.054,27.422 35.270,27.422 ZM41.710,30.598 L30.318,41.986 C33.549,44.466 38.131,44.170 41.013,41.288 C43.906,38.408 44.202,33.827 41.710,30.598 ZM26.887,26.863 C26.845,26.926 26.802,26.979 26.750,27.032 C26.697,27.084 26.644,27.126 26.581,27.169 L17.986,35.791 L17.976,35.801 C13.922,39.801 7.418,39.801 3.374,35.801 C-0.638,31.791 -0.649,25.279 3.364,21.259 L11.968,12.668 C12.063,12.500 12.201,12.362 12.369,12.267 L20.922,3.719 C20.953,3.688 20.974,3.667 21.006,3.634 C25.050,-0.365 31.564,-0.323 35.555,3.719 C39.546,7.761 39.514,14.272 35.470,18.261 L26.887,26.863 ZM4.863,22.747 C1.685,25.944 1.685,31.105 4.863,34.302 C8.083,37.490 13.267,37.479 16.487,34.302 L24.501,26.272 L12.929,14.684 L4.863,22.747 ZM33.982,5.197 C30.793,2.009 25.609,2.009 22.421,5.197 L14.418,13.196 L25.989,24.762 L33.982,16.752 C37.170,13.565 37.170,8.384 33.982,5.197 ZM22.125,13.524 L22.115,13.534 C21.703,13.934 21.027,13.924 20.626,13.512 C20.225,13.101 20.225,12.437 20.647,12.025 L24.300,8.437 C24.722,8.015 25.387,8.025 25.789,8.447 C26.190,8.859 26.190,9.523 25.768,9.936 L22.125,13.524 Z"/>
</svg>