<svg xmlns="http://www.w3.org/2000/svg" xmlns:xlink="http://www.w3.org/1999/xlink" width="42px" height="37px">
  <path fill="#39c0fa" d="M41.018,8.263 L38.734,28.412 C38.614,29.455 38.098,30.415 37.294,31.091 C36.727,31.485 36.084,31.755 35.407,31.886 L35.407,32.680 C35.407,34.863 33.420,36.551 31.235,36.551 L3.970,36.551 C3.920,36.551 3.869,36.551 3.819,36.549 C1.735,36.495 0.091,34.761 0.146,32.680 L0.146,12.381 C0.146,10.198 1.785,8.263 3.970,8.263 L5.509,8.263 L6.006,4.193 C6.115,3.172 6.635,2.241 7.446,1.612 C8.258,0.925 9.324,0.619 10.376,0.768 L37.492,3.845 C39.680,4.104 41.251,6.073 41.018,8.263 ZM3.970,34.566 L31.235,34.566 C32.327,34.566 33.420,33.771 33.420,32.680 L33.420,23.051 L23.636,28.710 C22.917,29.141 22.092,29.364 21.253,29.354 C20.179,29.338 19.145,28.952 18.322,28.262 L12.909,23.499 C12.057,22.703 10.755,22.640 9.830,23.350 L2.132,29.007 L2.132,32.680 C2.129,32.731 2.129,32.781 2.130,32.832 C2.159,33.818 2.983,34.594 3.970,34.566 ZM3.970,10.248 C2.877,10.248 2.132,11.289 2.132,12.381 L2.132,26.526 L8.688,21.761 C10.346,20.533 12.635,20.615 14.200,21.960 L19.663,26.774 C20.487,27.472 21.664,27.572 22.593,27.022 L33.420,20.719 L33.420,12.381 C33.345,11.216 32.402,10.296 31.235,10.248 L3.970,10.248 ZM37.244,5.830 L10.178,2.704 C9.650,2.659 9.123,2.800 8.688,3.101 C8.302,3.435 8.040,3.890 7.943,4.391 L7.496,8.263 L31.235,8.263 C33.498,8.314 35.328,10.120 35.407,12.381 L35.407,29.900 C35.407,29.801 35.854,29.702 36.052,29.504 C36.463,29.181 36.702,28.686 36.698,28.163 L39.032,8.014 C39.033,8.008 39.033,8.001 39.034,7.994 C39.138,6.903 38.336,5.934 37.244,5.830 ZM20.855,21.712 C18.551,21.712 16.684,19.845 16.684,17.543 C16.684,15.240 18.551,13.374 20.855,13.374 C23.159,13.374 25.027,15.240 25.027,17.543 C25.027,19.845 23.159,21.712 20.855,21.712 ZM20.855,15.359 C19.648,15.359 18.670,16.337 18.670,17.543 C18.670,18.749 19.648,19.726 20.855,19.726 C22.062,19.726 23.040,18.749 23.040,17.543 C23.040,16.337 22.062,15.359 20.855,15.359 Z"/>
</svg>