<svg xmlns="http://www.w3.org/2000/svg" width="46" height="41"><path fill-rule="evenodd" fill="#1AB69D" d="M42.461 33.712h-1.824l.88 4.018c.403 2.435-1.803 2.548-2.732 2.009l-4.91-2.639c-.137-.072-.515-.072-.652 0l-4.91 2.639c-1.506.812-3.006-.295-2.732-2.009l.367-4.018H3.538C1.808 33.712 0 31.868 0 30.101V3.61C0 1.841 1.808-.003 3.538-.003h38.923l.077-.011c1.731 0 3.461 1.855 3.462 3.624v26.491c0 1.767-1.809 3.611-3.539 3.611Zm-8.936.836 5.398 2.777-.995-4.972-.003-.015-.429-2.681a7.974 7.974 0 0 1-3.947 1.043 7.967 7.967 0 0 1-3.946-1.043l-1.296 7.668 5.218-2.777Zm.024-6.596c3.016 0 5.469-2.506 5.469-5.587s-2.453-5.587-5.469-5.587c-3.016 0-5.469 2.506-5.469 5.587s2.453 5.587 5.469 5.587ZM43.641 4.813c0-1.553-.814-2.408-2.359-2.408H4.718c-1.497 0-2.359.953-2.359 2.408v24.082c0 1.444.945 2.41 2.359 2.41h21.703l.78-3.666c.001-.012.005-.025.007-.036a8.405 8.405 0 0 1-1.818-5.238c0-4.596 3.66-8.336 8.159-8.336 4.499 0 8.159 3.74 8.159 8.336 0 1.69-1.197 4.203-2.255 5.795.268 1.07.649 3.145.649 3.145h1.18c1.548 0 2.359-1.102 2.359-2.41V4.813Zm-5.898 6.022H7.077c-.744 0-1.18-.447-1.18-1.205 0-.759.436-1.204 1.18-1.204h30.666c.743 0 1.18.445 1.18 1.204 0 .758-.437 1.205-1.18 1.205ZM7.077 15.651h12.974c.742 0 1.179.444 1.179 1.204 0 .758-.437 1.204-1.179 1.204H7.077c-.744 0-1.18-.446-1.18-1.204 0-.76.436-1.204 1.18-1.204Z"/></svg>