<svg xmlns="http://www.w3.org/2000/svg" width="35" height="35"><path fill-rule="evenodd" d="M31.307 9.199v4.968h-2.05V9.199c0-1.317.512-2.554 1.443-3.485l2.85-2.849L35 4.315l-2.849 2.849a2.859 2.859 0 0 0-.844 2.035Zm-5.509-3.458H20.83v-2.05h4.968c.769 0 1.492-.299 2.035-.843l2.85-2.849 1.45 1.45-2.85 2.849a4.897 4.897 0 0 1-3.485 1.443Zm1.894 11.755c0 5.62-4.573 10.193-10.195 10.193S7.302 23.116 7.302 17.496c0-5.621 4.573-10.194 10.195-10.194s10.195 4.573 10.195 10.194Zm-2.125 1.099a8.161 8.161 0 0 0-6.971 6.969 8.16 8.16 0 0 0 6.971-6.969Zm-13.845 4.637a3.206 3.206 0 0 0 1.26-2.539 3.193 3.193 0 0 0-3.63-3.159 8.121 8.121 0 0 0 2.37 5.698Zm9.363-13.045a8.091 8.091 0 0 0-3.588-.834c-1.287 0-2.506.3-3.589.834a3.597 3.597 0 0 0 3.589 3.784 3.597 3.597 0 0 0 3.588-3.784Zm-3.588 5.835a5.654 5.654 0 0 1-5.528-4.5 8.135 8.135 0 0 0-2.358 3.935 5.246 5.246 0 0 1 5.422 5.236 5.266 5.266 0 0 1-1.659 3.823 8.083 8.083 0 0 0 3.154 1.065c.505-4.758 4.297-8.549 9.056-9.053a8.122 8.122 0 0 0-2.559-5.006 5.654 5.654 0 0 1-5.528 4.5ZM5.717 4.298l-2.85-2.849 1.45-1.45 2.85 2.849a2.855 2.855 0 0 0 2.034.843h4.969v2.05H9.201a4.896 4.896 0 0 1-3.484-1.443Zm.026 4.901v4.968H3.692V9.199a2.86 2.86 0 0 0-.842-2.035L0 4.315l1.45-1.45L4.3 5.714a4.899 4.899 0 0 1 1.443 3.485Zm-2.051 16.6v-4.968h2.051v4.968A4.896 4.896 0 0 1 4.3 29.283l-2.85 2.849L0 30.683l2.849-2.849a2.856 2.856 0 0 0 .843-2.035Zm5.509 3.457h4.969v2.051H9.201c-.768 0-1.491.3-2.034.843l-2.85 2.849-1.45-1.45 2.85-2.848a4.89 4.89 0 0 1 3.484-1.445Zm20.083 1.445 2.849 2.848-1.45 1.45-2.85-2.849a2.86 2.86 0 0 0-2.035-.843H20.83v-2.051h4.968c1.317 0 2.555.513 3.486 1.445Zm-.027-4.902v-4.968h2.05v4.968c0 .769.3 1.492.843 2.035L35 30.683l-1.45 1.45-2.85-2.849a4.896 4.896 0 0 1-1.443-3.485Z"/></svg>