<svg xmlns="http://www.w3.org/2000/svg" width="28" height="26"><path fill-rule="evenodd" d="m18.66 25.602-.21.082a2.004 2.004 0 1 1-1.401-3.757l.21-.079a10.015 10.015 0 0 0 6.397-8.012h-4.175a3.865 3.865 0 0 1-3.744-3.886V4.633l.001-.082A3.837 3.837 0 0 1 19.672.816h4.074a3.807 3.807 0 0 1 4.005 3.887v7.811a14.077 14.077 0 0 1-9.091 13.088Zm5.086-20.769h-4.004V9.83h4.004V4.833ZM3.644 25.602l-.21.082a2.004 2.004 0 1 1-1.401-3.757l.21-.079a10.015 10.015 0 0 0 6.397-8.012H4.726l-.093.001A3.885 3.885 0 0 1 .721 9.979V4.833A3.854 3.854 0 0 1 4.726.828H8.93a3.904 3.904 0 0 1 3.805 3.996v7.69a14.077 14.077 0 0 1-9.091 13.088ZM8.73 4.824H4.726V9.83H8.73V4.824Z"/></svg>