<svg xmlns="http://www.w3.org/2000/svg" width="48" height="41"><path fill-rule="evenodd" fill="#F8941F" d="M47.642 30.508c0-2.8-.823-5.504-2.381-7.82a13.865 13.865 0 0 0-4.236-4.076 10.472 10.472 0 0 0 3.201-7.556c0-5.741-4.587-10.412-10.224-10.412-3.342 0-6.473 1.684-8.375 4.448a10.169 10.169 0 0 0-1.48-.111c-.503 0-.996.04-1.48.111C20.765 2.328 17.634.644 14.292.644 8.655.644 4.069 5.315 4.069 11.056a10.47 10.47 0 0 0 3.2 7.556 13.865 13.865 0 0 0-4.236 4.076 13.959 13.959 0 0 0-2.381 7.82V36.3h9.855v4.336h27.281V36.3h9.855v-5.792h-.001ZM34.002 3.214c4.246 0 7.701 3.518 7.701 7.842 0 4.326-3.455 7.843-7.701 7.843l-.228-.003a10.444 10.444 0 0 0 .523-2.278c.01-.086.02-.173.028-.26.008-.087.014-.177.02-.266.004-.071.01-.141.013-.21.007-.152.011-.303.011-.455l.002-.034-.001-.018a11.769 11.769 0 0 0-.048-.985l-.008-.087c-.381-3.753-2.709-6.966-6.068-8.451 1.448-1.656 3.541-2.638 5.756-2.638ZM21.483 8.035l.074-.027a7 7 0 0 1 .409-.135l.13-.038.235-.063a7.602 7.602 0 0 1 1.816-.222 7.617 7.617 0 0 1 2.05.286l.132.037.176.056a6.447 6.447 0 0 1 .306.106c2.574.971 4.506 3.304 4.942 6.137l.01.068c.014.096.026.192.036.289l.012.107c.008.089.014.178.02.268l.007.115c.005.114.008.229.009.345V15.407c0 .112-.004.223-.008.333-.002.036-.003.07-.006.104a6.923 6.923 0 0 1-.062.647l-.023.157a5.995 5.995 0 0 1-.043.24c-.013.071-.028.14-.043.211a6.764 6.764 0 0 1-.11.437c-.01.042-.022.082-.033.123a9.052 9.052 0 0 1-.056.176l-.047.141c-.018.052-.035.105-.055.157-.033.09-.067.177-.102.265l-.05.116a6.223 6.223 0 0 1-.096.218l-.012.026-.036.076a8.308 8.308 0 0 1-.116.231c-.016.028-.031.058-.046.088l-.003.005c-.044.081-.09.161-.136.24l-.055.094a8.697 8.697 0 0 1-.258.397 4.856 4.856 0 0 1-.089.126c-.038.054-.078.106-.118.16l-.082.106c-.043.054-.085.108-.129.161l-.083.098c-.045.052-.09.105-.137.157l-.085.091a7.49 7.49 0 0 1-.375.378l-.101.092-.168.147-.087.073a8.436 8.436 0 0 1-.208.167l-.058.044a7.568 7.568 0 0 1-9.169 0l-.056-.044a6.945 6.945 0 0 1-.209-.167l-.087-.072-.168-.149-.101-.091-.142-.139a6.65 6.65 0 0 1-.318-.33 5.206 5.206 0 0 1-.137-.159c-.028-.032-.056-.063-.083-.096-.044-.053-.086-.107-.129-.161a4.892 4.892 0 0 1-.082-.106c-.04-.053-.08-.106-.118-.16-.03-.042-.06-.084-.088-.127l-.103-.148a10.44 10.44 0 0 1-.156-.249l-.054-.093a9.483 9.483 0 0 1-.138-.242l-.047-.091a10.065 10.065 0 0 1-.156-.315l-.006-.013a5.196 5.196 0 0 1-.101-.227l-.047-.109a8.834 8.834 0 0 1-.156-.418c-.017-.051-.035-.102-.051-.154a11.87 11.87 0 0 1-.123-.418 9.368 9.368 0 0 1-.043-.179l-.032-.141c-.013-.058-.026-.115-.037-.174a7.372 7.372 0 0 1-.097-.641l-.012-.108a7.022 7.022 0 0 1-.029-.422 6.9 6.9 0 0 1 0-.731l.006-.101c.006-.095.013-.188.022-.282l.009-.097c.011-.101.024-.201.038-.301l.009-.058c.436-2.835 2.367-5.17 4.943-6.141ZM6.592 11.056c0-4.324 3.454-7.842 7.7-7.842 2.215 0 4.308.982 5.755 2.638-3.359 1.486-5.687 4.7-6.067 8.454a10.598 10.598 0 0 0-.044 1.578c.003.066.008.131.013.196.006.094.012.189.02.283.008.083.018.166.027.248.009.073.017.145.027.217l.042.282.029.167c.019.105.039.21.06.313l.024.102c.085.386.192.765.318 1.132l.023.072a8.534 8.534 0 0 1-.227.003c-4.246 0-7.7-3.517-7.7-7.843Zm6.03 16.383c-.028.044-.054.089-.081.135a10.195 10.195 0 0 0-.261.447c-.049.088-.099.177-.146.268a13.362 13.362 0 0 0-.224.441l-.082.17-.13.286c-.023.053-.047.105-.069.158-.049.115-.096.231-.142.347l-.041.102c-.059.152-.114.303-.167.457-.013.034-.024.071-.035.105-.04.118-.079.236-.116.356-.017.054-.032.11-.048.163-.03.101-.059.202-.086.303l-.048.182-.071.293a10.239 10.239 0 0 0-.104.485l-.035.181c-.02.109-.037.218-.055.327l-.024.154c-.024.161-.045.321-.063.483l-.001.006c-.016.148-.03.294-.042.442H3.175v-3.222c0-4.401 2.484-8.352 6.377-10.23a10.012 10.012 0 0 0 6.222 1.079 9.833 9.833 0 0 0 .907 1.138c.042.047.085.092.129.139.074.077.15.154.226.23.029.028.056.058.085.087-.11.067-.218.136-.326.207l-.052.034a18.03 18.03 0 0 0-.429.297 9.1 9.1 0 0 0-.279.206 15.587 15.587 0 0 0-.435.342c-.025.019-.05.041-.075.062-.091.076-.181.153-.27.232l-.103.09c-.089.081-.177.162-.265.245-.022.021-.046.042-.068.065-.107.102-.213.206-.316.313-.027.027-.054.054-.08.083-.08.083-.158.166-.236.251l-.093.102c-.086.096-.173.194-.257.294l-.041.047a19.667 19.667 0 0 0-.361.449c-.069.092-.138.182-.206.275-.026.036-.053.07-.079.107-.088.123-.176.248-.262.374a14.55 14.55 0 0 0-.266.413Zm.408 10.628v-3.222c0-.141.003-.285.008-.425l.008-.14c.004-.095.009-.189.016-.283.003-.058.01-.115.015-.171.007-.084.014-.167.023-.249.006-.06.015-.12.023-.18.009-.079.019-.158.03-.235l.031-.186.037-.226.038-.189c.015-.074.029-.146.045-.218.014-.064.03-.127.045-.191.017-.071.033-.141.052-.212l.053-.191c.019-.069.037-.137.058-.206.019-.064.04-.127.06-.19.022-.068.042-.135.065-.201a7.11 7.11 0 0 1 .067-.189l.072-.198.073-.184.079-.195.08-.185.085-.188.087-.182.091-.185.095-.178c.032-.06.063-.121.096-.181l.101-.175c.034-.059.067-.118.103-.176l.107-.173c.035-.057.072-.114.109-.171.037-.057.075-.113.113-.168.038-.057.076-.113.115-.168.039-.056.079-.11.119-.165l.12-.162.126-.161.126-.159.131-.155.132-.154.137-.151.137-.149.143-.146.143-.145.147-.14c.05-.047.099-.094.15-.139.05-.047.101-.091.152-.136.051-.046.103-.09.154-.134l.157-.13.161-.13.162-.125c.054-.041.11-.082.166-.122a6.338 6.338 0 0 1 .337-.238l.17-.112.178-.112c.058-.036.116-.072.174-.106.061-.036.121-.072.183-.107.059-.033.118-.067.178-.099a7.654 7.654 0 0 1 .37-.194l.144-.07c1.418.759 3.03 1.19 4.74 1.19 1.71 0 3.322-.431 4.74-1.19l.144.069.183.095c.063.032.125.065.186.099l.18.1.181.106.176.107a10.418 10.418 0 0 1 .347.225 8.73 8.73 0 0 1 .502.359l.163.125c.054.043.107.085.159.129.053.043.106.086.159.131l.154.133c.051.046.102.09.152.137l.149.138c.05.046.099.094.148.142l.143.143.142.147.137.148c.047.05.093.101.138.152l.131.152c.044.053.089.105.132.159.042.05.084.104.125.156a10.06 10.06 0 0 1 .703.996c.036.058.072.114.107.173l.103.175.101.176.096.18.095.179.09.185.088.182.084.188c.028.062.055.123.081.185l.078.192c.024.063.05.125.075.187l.07.198c.023.063.047.125.068.189l.065.201.06.19.058.207.053.19.051.212c.016.064.032.127.046.191.016.072.03.144.045.217.012.064.026.126.037.19.014.074.026.149.038.224l.031.188c.011.077.02.155.03.233.008.061.017.121.023.182.01.082.016.165.023.249.006.056.012.113.016.171.007.094.011.188.016.283.002.047.006.092.007.139.006.141.008.285.008.426v3.222H13.03Zm24.713-4.337c-.024-.311-.06-.624-.105-.933l-.023-.146c-.018-.112-.036-.224-.057-.335-.01-.059-.022-.116-.033-.175-.02-.102-.041-.203-.063-.304l-.042-.183a9.816 9.816 0 0 0-.072-.296c-.016-.06-.03-.12-.047-.179a10.744 10.744 0 0 0-.087-.307l-.047-.161a18.952 18.952 0 0 0-.15-.46c-.054-.155-.11-.307-.169-.459l-.039-.098a11.704 11.704 0 0 0-.144-.35c-.022-.053-.045-.104-.068-.155a12.757 12.757 0 0 0-.212-.458c-.044-.092-.09-.182-.136-.273a8.972 8.972 0 0 0-.235-.438l-.09-.161a10.363 10.363 0 0 0-.172-.287l-.08-.133a14.55 14.55 0 0 0-.266-.413 20.691 20.691 0 0 0-.262-.374c-.026-.037-.053-.071-.079-.107a18.034 18.034 0 0 0-.283-.374 13.593 13.593 0 0 0-.285-.35l-.038-.045c-.086-.101-.173-.2-.26-.297l-.091-.101c-.079-.085-.157-.169-.238-.252l-.078-.082a15.56 15.56 0 0 0-.317-.313l-.068-.065a20.754 20.754 0 0 0-.265-.245l-.103-.09a10.03 10.03 0 0 0-.271-.232c-.025-.021-.049-.043-.074-.062a18.293 18.293 0 0 0-.347-.277l-.088-.066a13.22 13.22 0 0 0-.389-.283 11.023 11.023 0 0 0-.372-.253c-.107-.071-.216-.14-.325-.207l.083-.084c.078-.078.155-.156.23-.235l.126-.135a8.974 8.974 0 0 0 .343-.393 9.46 9.46 0 0 0 .248-.313l.08-.102c.081-.109.159-.219.237-.331a10.012 10.012 0 0 0 6.222-1.08c3.893 1.878 6.377 5.829 6.377 10.23v3.222h-7.376Z"/></svg>