<svg width="280" height="275" viewBox="0 0 280 275" fill="none" xmlns="http://www.w3.org/2000/svg">
<g clip-path="url(#clip0_4_4)">
<path d="M-6.10352e-05 258.304C36.3439 274.165 76.5859 278.866 115.613 271.803C154.784 264.714 190.948 246.098 219.477 218.336C248.006 190.575 267.602 154.931 275.756 115.968C283.882 77.1376 280.276 36.7708 265.402 0C264.997 0.000136345 264.997 0.00012207 264.323 0C279.25 36.6874 282.891 76.9949 274.777 115.763C266.664 154.531 247.166 189.997 218.78 217.619C190.393 245.242 154.41 263.766 115.435 270.819C76.46 277.873 36.2659 273.135 -6.10352e-05 257.213C-6.10352e-05 257.5 -6.10352e-05 258 -6.10352e-05 258.304Z" fill="white" fill-opacity="0.2"/>
</g>
<defs>
<clipPath id="clip0_4_4">
<rect width="280" height="275" fill="white"/>
</clipPath>
</defs>
</svg>
