<svg xmlns="http://www.w3.org/2000/svg" width="1920" height="400"><path fill-rule="evenodd" fill-opacity=".031" d="M1224.999 0c22.871 41.79 35 89.44 35 139.998 0 111.11-60.239 208.153-150 260.001H810c-89.8-51.838-150.001-148.862-150.001-260.001 0-50.535 12.931-98.221 35-139.998h530Z"/><path fill-rule="evenodd" fill-opacity=".031" d="M793.999 0c-50.643 94.44-149.7 157.999-264 157.999-114.333 0-213.37-63.099-264-157.999h528ZM89.999 229.999c119.124 0 221.569 69.399 270 170.001H0V243.999c28.405-8.199 58.65-14 89.999-14ZM1829.999 229.999c31.352 0 61.593 5.781 90 14V400H1560c48.433-100.597 150.88-170.001 269.999-170.001ZM1653.999 0c-50.651 94.18-149.719 157.999-264 157.999-114.298 0-213.356-63.579-264-157.999h528Z"/></svg>