<svg 
 xmlns="http://www.w3.org/2000/svg"
 xmlns:xlink="http://www.w3.org/1999/xlink"
 width="1920px" height="1312px">
<path fill-rule="evenodd"  fill="rgb(237, 243, 245)"
 d="M1898.830,1288.861 C1869.197,1294.146 1832.168,1282.872 1828.367,1265.274 C1816.462,1274.446 1792.253,1276.556 1774.163,1271.700 C1756.073,1266.846 1744.022,1256.358 1739.097,1245.293 C1731.201,1261.221 1700.107,1271.689 1671.445,1269.237 C1643.023,1266.805 1619.528,1252.880 1613.777,1236.797 C1607.734,1238.326 1601.041,1239.023 1594.497,1238.559 C1575.307,1237.197 1559.726,1227.649 1555.479,1216.873 C1541.018,1233.383 1503.819,1242.063 1473.256,1236.057 C1451.138,1231.711 1434.626,1220.073 1429.574,1207.118 C1425.531,1208.120 1421.251,1208.811 1417.126,1209.107 C1416.537,1209.149 1415.943,1209.165 1415.352,1209.199 C1414.762,1209.595 1414.197,1210.000 1413.585,1210.387 C1382.483,1230.072 1318.674,1231.974 1292.654,1210.015 C1270.060,1220.702 1236.924,1222.280 1210.064,1215.912 C1197.450,1232.445 1174.407,1246.567 1144.410,1251.656 C1108.402,1257.765 1063.867,1247.483 1052.040,1227.118 C1037.876,1239.739 1008.316,1245.948 983.212,1241.575 C970.927,1239.435 960.253,1234.842 952.602,1228.963 C946.192,1236.254 932.926,1240.785 919.746,1244.022 C892.181,1250.791 860.928,1253.873 831.907,1249.520 C802.887,1245.167 776.824,1232.466 769.701,1215.818 C761.057,1227.219 738.774,1234.721 717.124,1233.519 C706.715,1232.941 696.862,1230.359 688.899,1226.500 C667.020,1237.986 636.441,1244.179 606.825,1242.232 C566.921,1239.607 531.149,1222.379 519.879,1200.357 C514.269,1201.691 508.404,1202.288 502.505,1202.310 C497.266,1206.464 491.371,1210.350 484.808,1213.873 C468.561,1222.593 445.538,1228.530 423.404,1229.644 C424.946,1234.294 424.633,1239.111 421.949,1243.603 C411.672,1260.794 376.092,1270.233 344.669,1267.438 C323.423,1265.548 304.420,1259.109 288.917,1250.457 C287.101,1253.448 284.227,1256.208 280.178,1258.472 C259.770,1269.887 221.784,1266.318 205.559,1252.891 C225.610,1268.462 240.267,1292.221 215.528,1305.411 C199.498,1313.956 173.870,1313.235 153.491,1308.612 C126.206,1302.421 103.804,1289.929 91.143,1274.834 C91.691,1277.731 91.733,1280.643 91.022,1283.560 C88.518,1293.825 73.466,1303.888 55.377,1303.070 C45.890,1302.641 37.520,1299.410 30.308,1295.863 C17.505,1289.566 8.248,1283.008 0.000,1275.000 L0.000,1200.000 L0.000,112.000 L1920.000,112.000 L1920.000,1200.000 L1920.000,1282.000 C1913.554,1285.211 1907.130,1287.381 1898.830,1288.861 ZM0.000,29.999 C6.446,26.788 12.870,24.618 21.170,23.137 C50.803,17.853 87.832,29.126 91.633,46.725 C103.538,37.553 127.747,35.443 145.837,40.299 C163.927,45.154 175.978,55.641 180.903,66.706 C188.799,50.778 219.893,40.310 248.555,42.762 C276.977,45.194 300.472,59.120 306.223,75.202 C312.266,73.672 318.959,72.976 325.503,73.441 C344.693,74.801 360.274,84.350 364.521,95.126 C378.982,78.615 416.181,69.936 446.744,75.941 C468.862,80.288 485.374,91.925 490.426,104.881 C494.469,103.879 498.749,103.187 502.874,102.893 C503.463,102.849 504.057,102.834 504.648,102.800 C505.238,102.404 505.803,101.999 506.415,101.612 C537.517,81.927 601.326,80.025 627.346,101.984 C649.940,91.296 683.076,89.719 709.936,96.086 C722.550,79.554 745.593,65.432 775.590,60.343 C811.598,54.234 856.133,64.516 867.960,84.881 C882.124,72.260 911.684,66.051 936.788,70.425 C949.073,72.564 959.747,77.157 967.398,83.036 C973.808,75.744 987.074,71.214 1000.254,67.977 C1027.819,61.208 1059.072,58.127 1088.093,62.479 C1117.113,66.832 1143.176,79.533 1150.299,96.181 C1158.943,84.780 1181.226,77.278 1202.876,78.479 C1213.285,79.058 1223.138,81.639 1231.101,85.499 C1252.980,74.013 1283.559,67.819 1313.175,69.768 C1353.079,72.391 1388.851,89.619 1400.121,111.642 C1405.731,110.308 1411.596,109.710 1417.495,109.689 C1422.734,105.535 1428.629,101.649 1435.192,98.126 C1451.439,89.406 1474.462,83.469 1496.596,82.355 C1495.054,77.705 1495.367,72.887 1498.051,68.396 C1508.328,51.205 1543.908,41.766 1575.331,44.561 C1596.577,46.451 1615.580,52.890 1631.083,61.542 C1632.899,58.551 1635.773,55.792 1639.822,53.526 C1660.230,42.112 1698.216,45.681 1714.441,59.108 C1694.390,43.537 1679.733,19.778 1704.472,6.589 C1720.502,-1.958 1746.130,-1.236 1766.509,3.388 C1793.794,9.578 1816.196,22.070 1828.857,37.164 C1828.309,34.268 1828.267,31.356 1828.978,28.439 C1831.482,18.173 1846.534,8.112 1864.623,8.930 C1874.110,9.358 1882.480,12.589 1889.692,16.136 C1902.495,22.434 1911.752,28.990 1920.000,36.999 L1920.000,111.999 L0.000,111.999 L0.000,29.999 Z"/>
</svg>