<svg 
 xmlns="http://www.w3.org/2000/svg"
 xmlns:xlink="http://www.w3.org/1999/xlink"
 width="1920px" height="812px">
<path fill-rule="evenodd"  
 d="M1920.000,-0.001 C1920.000,-0.001 1920.000,621.487 1920.000,715.000 C1873.255,724.256 1817.521,702.409 1768.949,711.549 C1720.820,720.605 1678.560,762.274 1628.436,769.585 C1579.797,776.679 1524.997,749.225 1474.667,754.594 C1425.652,759.823 1379.579,798.089 1329.132,801.607 C1279.842,805.045 1227.719,773.668 1177.223,775.403 C1127.756,777.102 1078.473,811.999 1028.000,811.999 C977.532,811.999 928.254,777.102 878.792,775.403 C828.300,773.668 776.181,805.046 726.895,801.609 C676.446,798.091 630.370,759.824 581.353,754.596 C531.023,749.227 476.226,776.681 427.587,769.588 C377.460,762.277 335.198,720.609 287.067,711.552 C237.247,702.178 179.877,725.022 132.416,713.873 C83.398,702.359 46.107,657.774 0.000,644.000 C0.000,610.917 0.000,-0.001 0.000,-0.001 L1920.000,-0.001 Z"/>
</svg>