<svg xmlns="http://www.w3.org/2000/svg" width="1920" height="665">
    <defs>
        <linearGradient id="a" x1="0%" x2="0%" y1="0%" y2="100%">
            <stop offset="0%" stop-color="#F7F5F2" stop-opacity=".502"/>
            <stop offset="100%" stop-color="#F7F5F2"/>
        </linearGradient>
    </defs>
    <path fill="none" d="M0 664.999v-568c46.744-9.256 102.478 12.59 151.5 3.45 47.679-9.056 89.939-50.725 140.064-58.035 
    48.639-7.094 103.636 20.36 153.769 14.991 49.014-5.229 95.088-43.495 145.534-47.014 49.291-3.437 101.413 27.94 151.91
    26.205C792.243 34.897 841.526 0 892 0c50.467 0 99.746 34.897 149.207 36.596 50.493 1.734 102.611-29.644 151.898-26.207
    50.448 3.518 96.525 41.785 145.541 47.014 50.33 5.369 105.128-22.086 153.766-14.992 50.127 7.31 92.389 48.979 140.521
    58.035 49.819 9.374 107.189-13.47 154.651-2.321 49.017 11.515 86.308 56.1 132.415 69.874v497H0Z"/>
   <path fill="url(#a)" d="M0 664.999v-568c46.744-9.256 102.478 12.59 151.5 3.45 47.679-9.056 89.939-50.725 140.064-58.035 
   48.639-7.094 103.636 20.36 153.769 14.991 49.014-5.229 95.088-43.495 145.534-47.014 49.291-3.437 101.413 27.94 151.91 
   26.205C792.243 34.897 841.526 0 892 0c50.467 0 99.746 34.897 149.207 36.596 50.493 1.734 102.611-29.644 151.898-26.207 
   50.448 3.518 96.525 41.785 145.541 47.014 50.33 5.369 105.128-22.086 153.766-14.992 50.127 7.31 92.389 48.979 140.521 
   58.035 49.819 9.374 107.189-13.47 154.651-2.321 49.017 11.515 86.308 56.1 132.415 69.874v497H0Z"/>
</svg>