<svg xmlns="http://www.w3.org/2000/svg" width="157" height="141"><path fill-rule="evenodd" fill-opacity=".102" fill="#8E56FF" d="M147.087 39.555c-9.338-13.03-23.083-22.178-37.246-29.605C98.932 4.23 86.953-.759 74.709.459c-11.39 1.134-21.517 7.478-31.176 13.653-9.86 6.303-19.754 12.633-28.68 20.215-3.883 3.299-7.628 6.895-10.172 11.32-6.122 10.647-4.279 24.083-.594 35.81 5.579 17.755 15.307 34.656 30.022 45.963 14.716 11.308 34.84 16.307 52.365 10.28 23.537-8.095 25.38-23.37 46.291-36.918 0 0 16.446-7.267 22.091-15.704 3.96-5.918 1.568-32.493-7.769-45.523Z"/></svg>