<svg width="37" viewBox="0 0 48 40" fill="none" xmlns="http://www.w3.org/2000/svg">
    <path d="M29.1048 32.5521H2.67293C1.72721 32.5521 0.964844 31.7998 0.964844 30.8664V2.63786C0.964844 1.70453 1.72721 0.952148 2.67293 0.952148H45.3267C46.2724 0.952148 47.0348 1.70453 47.0348 2.63786V30.8664C47.0348 31.7998 46.2724 32.5521 45.3267 32.5521H41.8044" fill="none" stroke="#ffffff" stroke-width="2" stroke-miterlimit="10"/>
    <path d="M8.31836 9.33301H40.6658" fill="none" stroke="#ffffff" stroke-width="2" stroke-miterlimit="10" stroke-linecap="round" stroke-linejoin="round"/>
    <path d="M8.31836 16.752H22.369" fill="none" stroke="#ffffff" stroke-width="2" stroke-miterlimit="10" stroke-linecap="round" stroke-linejoin="round"/>
    <path d="M35.4355 28.2858C39.001 28.2858 41.8914 25.4332 41.8914 21.9144C41.8914 18.3956 39.001 15.543 35.4355 15.543C31.8699 15.543 28.9795 18.3956 28.9795 21.9144C28.9795 25.4332 31.8699 28.2858 35.4355 28.2858Z" fill="none" stroke="#ffffff" stroke-width="2" stroke-miterlimit="10"/>
    <path d="M30.5523 26.0762L28.0626 38.6286C28.0047 38.9238 28.3231 39.1428 28.5837 39L34.5668 35.619C35.0975 35.3143 35.7538 35.3143 36.2942 35.619L42.2773 39C42.5378 39.1524 42.8563 38.9238 42.7984 38.6286L40.3086 26.0762" fill="none" stroke="#ffffff" stroke-width="2" stroke-miterlimit="10"/>
</svg>
