<svg width="38" height="36" viewBox="0 0 44 40" fill="none" xmlns="http://www.w3.org/2000/svg">
    <path d="M41.37 34.7695C41.27 36.5695 39.78 37.9995 37.95 37.9995H5.42C3.6 37.9995 2.1 36.5695 2 34.7695H41.37ZM41.57 32.7695H1.81C0.81 32.7695 0 33.5795 0 34.5795C0 37.5695 2.43 39.9995 5.42 39.9995H37.95C40.94 39.9995 43.37 37.5695 43.37 34.5795C43.38 33.5795 42.57 32.7695 41.57 32.7695Z" fill="#ffffff"/>
    <path d="M38.3501 15.5801V33.6801H4.12012V9.27012C4.12012 8.77012 4.52012 8.37012 5.02012 8.37012H28.0001" stroke="#ffffff" stroke-width="2" stroke-miterlimit="10"/>
    <path d="M41.3801 2V14.27H31.9901C31.3001 14.27 30.6301 14.52 30.1101 14.96L29.1101 15.64V2H41.3801ZM41.5701 0H28.9201C27.9201 0 27.1101 0.81 27.1101 1.81V17.89C27.1101 18.39 27.5201 18.72 27.9401 18.72C28.1401 18.72 28.3501 18.64 28.5201 18.48L31.3501 16.54C31.5201 16.37 31.7501 16.27 31.9901 16.27H41.5701C42.5701 16.27 43.3801 15.46 43.3801 14.46V1.81C43.3801 0.81 42.5701 0 41.5701 0Z" fill="#ffffff"/>
    <path d="M32.0801 6.12988H38.4101" stroke="#ffffff" stroke-width="2" stroke-miterlimit="10" stroke-linecap="round" stroke-linejoin="round"/>
    <path d="M33.8899 10.1396H36.5899" stroke="#ffffff" stroke-width="2" stroke-miterlimit="10" stroke-linecap="round" stroke-linejoin="round"/>
    <path d="M10.9399 33.6701V26.7001C10.9399 24.5601 12.9599 22.8301 15.4599 22.8301C17.9599 22.8301 19.9799 24.5601 19.9799 26.7001V33.6701" stroke="#ffffff" stroke-width="2" stroke-miterlimit="10"/>
    <path d="M15.46 22.8302C16.9567 22.8302 18.17 21.6168 18.17 20.1202C18.17 18.6235 16.9567 17.4102 15.46 17.4102C13.9633 17.4102 12.75 18.6235 12.75 20.1202C12.75 21.6168 13.9633 22.8302 15.46 22.8302Z" stroke="#ffffff" stroke-width="2" stroke-miterlimit="10"/>
</svg>
