<svg width="38" height="40" viewBox="0 0 45 40" fill="none" xmlns="http://www.w3.org/2000/svg">
    <path d="M22.5004 20.4568C26.6355 20.4568 29.9876 17.1309 29.9876 13.0282C29.9876 8.92549 26.6355 5.59961 22.5004 5.59961C18.3653 5.59961 15.0132 8.92549 15.0132 13.0282C15.0132 17.1309 18.3653 20.4568 22.5004 20.4568Z" stroke="#ffffff" stroke-width="2" stroke-miterlimit="10"/>
    <path d="M32.7999 39.0468H12.2005C11.6821 39.0468 11.2598 38.6277 11.2598 38.1134V31.6182C11.2598 25.4563 16.2896 20.4658 22.5002 20.4658C28.7107 20.4658 33.7406 25.4563 33.7406 31.6182V38.123C33.7406 38.6277 33.3182 39.0468 32.7999 39.0468Z" stroke="#ffffff" stroke-width="2" stroke-miterlimit="10"/>
    <path d="M25.6772 6.06643C26.6563 3.09501 29.4784 0.952148 32.7997 0.952148C36.9368 0.952148 40.2869 4.27596 40.2869 8.38072C40.2869 12.4855 36.9368 15.8093 32.7997 15.8093C31.6862 15.8093 30.6303 15.5712 29.68 15.1331" stroke="#ffffff" stroke-width="2" stroke-miterlimit="10"/>
    <path d="M29.1714 16.4088C30.3137 16.0279 31.5327 15.8184 32.7998 15.8184C39.0103 15.8184 44.0402 20.8088 44.0402 26.9707V33.4755C44.0402 33.9898 43.6178 34.4088 43.0995 34.4088H33.9133" stroke="#ffffff" stroke-width="2" stroke-miterlimit="10"/>
    <path d="M19.3229 6.06643C18.3342 3.09501 15.5217 0.952148 12.2004 0.952148C8.06325 0.952148 4.70361 4.27596 4.70361 8.38072C4.70361 12.4855 8.05366 15.8093 12.1908 15.8093C13.3043 15.8093 14.3602 15.5712 15.3105 15.1331" stroke="#ffffff" stroke-width="2" stroke-miterlimit="10"/>
    <path d="M15.8288 16.4088C14.6865 16.0279 13.4674 15.8184 12.2004 15.8184C5.98982 15.8184 0.959961 20.8088 0.959961 26.9707V33.4755C0.959961 33.9898 1.38232 34.4088 1.90066 34.4088H11.0869" stroke="#ffffff" stroke-width="2" stroke-miterlimit="10"/>

</svg>
