<svg 
 xmlns="http://www.w3.org/2000/svg"
 xmlns:xlink="http://www.w3.org/1999/xlink"
 width="1920px" height="1152px">
<path fill-rule="evenodd"  fill="rgb(245, 241, 235)"
 d="M1898.830,1128.861 C1869.197,1134.146 1832.168,1122.873 1828.367,1105.274 C1816.462,1114.446 1792.253,1116.556 1774.163,1111.700 C1756.073,1106.845 1744.022,1096.358 1739.097,1085.294 C1731.201,1101.221 1700.107,1111.689 1671.445,1109.237 C1643.023,1106.805 1619.528,1092.879 1613.777,1076.797 C1607.734,1078.326 1601.041,1079.023 1594.497,1078.559 C1575.307,1077.197 1559.726,1067.649 1555.479,1056.874 C1541.018,1073.384 1503.819,1082.063 1473.256,1076.058 C1451.138,1071.711 1434.626,1060.073 1429.574,1047.118 C1425.531,1048.120 1421.251,1048.812 1417.126,1049.107 C1416.537,1049.149 1415.943,1049.165 1415.352,1049.200 C1414.762,1049.595 1414.197,1050.000 1413.585,1050.388 C1382.483,1070.072 1318.674,1071.974 1292.654,1050.014 C1270.060,1060.702 1236.924,1062.280 1210.064,1055.912 C1197.450,1072.446 1174.407,1086.567 1144.410,1091.656 C1108.402,1097.765 1063.867,1087.483 1052.040,1067.118 C1037.876,1079.739 1008.316,1085.948 983.212,1081.575 C970.927,1079.435 960.253,1074.842 952.602,1068.963 C946.192,1076.255 932.926,1080.785 919.746,1084.022 C892.181,1090.790 860.928,1093.873 831.907,1089.520 C802.887,1085.167 776.824,1072.466 769.701,1055.818 C761.057,1067.219 738.774,1074.721 717.124,1073.520 C706.715,1072.942 696.862,1070.360 688.899,1066.500 C667.020,1077.986 636.441,1084.179 606.825,1082.231 C566.921,1079.607 531.149,1062.379 519.879,1040.357 C514.269,1041.692 508.404,1042.289 502.505,1042.310 C497.266,1046.464 491.371,1050.350 484.808,1053.872 C468.561,1062.593 445.538,1068.530 423.404,1069.644 C424.946,1074.294 424.633,1079.111 421.949,1083.603 C411.672,1100.793 376.092,1110.233 344.669,1107.438 C323.423,1105.548 304.420,1099.109 288.917,1090.457 C287.101,1093.448 284.227,1096.207 280.178,1098.473 C259.770,1109.888 221.784,1106.318 205.559,1092.891 C225.610,1108.462 240.267,1132.221 215.528,1145.410 C199.498,1153.956 173.870,1153.235 153.491,1148.612 C126.206,1142.421 103.804,1129.928 91.143,1114.835 C91.691,1117.731 91.733,1120.643 91.022,1123.561 C88.518,1133.826 73.466,1143.887 55.377,1143.069 C45.890,1142.641 37.520,1139.410 30.308,1135.863 C17.505,1129.566 8.248,1123.008 0.000,1115.000 L0.000,1040.000 L0.000,112.000 L1920.000,112.000 L1920.000,1040.000 L1920.000,1122.000 C1913.554,1125.211 1907.130,1127.382 1898.830,1128.861 ZM0.000,29.999 C6.446,26.788 12.870,24.618 21.170,23.137 C50.803,17.852 87.832,29.127 91.633,46.724 C103.538,37.553 127.747,35.443 145.837,40.299 C163.927,45.153 175.978,55.641 180.903,66.705 C188.799,50.778 219.893,40.310 248.555,42.762 C276.977,45.195 300.472,59.119 306.223,75.202 C312.266,73.673 318.959,72.976 325.503,73.440 C344.693,74.802 360.274,84.351 364.521,95.126 C378.982,78.615 416.181,69.936 446.744,75.941 C468.862,80.288 485.374,91.926 490.426,104.881 C494.469,103.879 498.749,103.187 502.874,102.892 C503.463,102.850 504.057,102.834 504.648,102.800 C505.238,102.403 505.803,101.999 506.415,101.612 C537.517,81.927 601.326,80.024 627.346,101.984 C649.940,91.297 683.076,89.719 709.936,96.087 C722.550,79.554 745.593,65.432 775.590,60.343 C811.598,54.234 856.133,64.516 867.960,84.880 C882.124,72.260 911.684,66.051 936.788,70.424 C949.073,72.564 959.747,77.157 967.398,83.036 C973.808,75.745 987.074,71.214 1000.254,67.977 C1027.819,61.209 1059.072,58.126 1088.093,62.479 C1117.113,66.832 1143.176,79.533 1150.299,96.181 C1158.943,84.780 1181.226,77.278 1202.876,78.480 C1213.285,79.057 1223.138,81.639 1231.101,85.499 C1252.980,74.013 1283.559,67.819 1313.175,69.767 C1353.079,72.392 1388.851,89.620 1400.121,111.642 C1405.731,110.308 1411.596,109.711 1417.495,109.689 C1422.734,105.536 1428.629,101.649 1435.192,98.126 C1451.439,89.406 1474.462,83.469 1496.596,82.355 C1495.054,77.705 1495.367,72.887 1498.051,68.396 C1508.328,51.205 1543.908,41.766 1575.331,44.562 C1596.577,46.451 1615.580,52.889 1631.083,61.542 C1632.899,58.551 1635.773,55.792 1639.822,53.527 C1660.230,42.112 1698.216,45.681 1714.441,59.108 C1694.390,43.537 1679.733,19.778 1704.472,6.588 C1720.502,-1.958 1746.130,-1.236 1766.509,3.387 C1793.794,9.578 1816.196,22.070 1828.857,37.164 C1828.309,34.268 1828.267,31.356 1828.978,28.439 C1831.482,18.174 1846.534,8.111 1864.623,8.929 C1874.110,9.358 1882.480,12.589 1889.692,16.136 C1902.495,22.433 1911.752,28.991 1920.000,36.999 L1920.000,111.999 L0.000,111.999 L0.000,29.999 Z"/>
</svg>