<svg 
 xmlns="http://www.w3.org/2000/svg"
 xmlns:xlink="http://www.w3.org/1999/xlink"
 width="1920px" height="180px">
<path fill-rule="evenodd"  fill="rgb(31, 33, 33)"
 d="M21.170,13.035 C50.803,10.057 87.832,16.409 91.633,26.324 C103.538,21.157 127.747,19.968 145.837,22.703 C163.927,25.438 175.978,31.347 180.903,37.580 C188.799,28.607 219.893,22.709 248.555,24.091 C276.977,25.462 300.472,33.307 306.223,42.367 C312.266,41.506 318.959,41.113 325.503,41.375 C344.693,42.142 360.274,47.521 364.521,53.592 C378.982,44.290 416.181,39.400 446.744,42.784 C468.862,45.232 485.374,51.789 490.426,59.088 C494.469,58.523 498.749,58.133 502.874,57.967 C503.463,57.944 504.057,57.935 504.648,57.915 C505.238,57.692 505.803,57.464 506.415,57.246 C537.517,46.156 601.326,45.084 627.346,57.456 C649.940,51.435 683.076,50.546 709.936,54.133 C722.550,44.819 745.593,36.863 775.590,33.996 C811.598,30.554 856.133,36.347 867.960,47.820 C882.124,40.710 911.684,37.212 936.788,39.676 C949.073,40.881 959.747,43.468 967.398,46.781 C973.808,42.673 987.074,40.120 1000.254,38.297 C1027.819,34.484 1059.072,32.747 1088.093,35.199 C1117.113,37.652 1143.176,44.807 1150.299,54.186 C1158.943,47.763 1181.226,43.537 1202.876,44.214 C1213.285,44.539 1223.138,45.994 1231.101,48.168 C1252.980,41.697 1283.559,38.208 1313.175,39.306 C1353.079,40.784 1388.851,50.490 1400.121,62.897 C1405.731,62.145 1411.596,61.809 1417.495,61.797 C1422.734,59.457 1428.629,57.267 1435.192,55.282 C1451.439,50.369 1474.462,47.025 1496.596,46.397 C1495.054,43.777 1495.367,41.063 1498.051,38.533 C1508.328,28.848 1543.908,23.530 1575.331,25.105 C1596.577,26.169 1615.580,29.797 1631.083,34.672 C1632.899,32.986 1635.773,31.432 1639.822,30.156 C1660.230,23.725 1698.216,25.735 1714.441,33.300 C1694.390,24.528 1679.733,11.142 1704.472,3.712 C1720.502,-1.103 1746.130,-0.697 1766.509,1.908 C1793.794,5.396 1816.196,12.434 1828.857,20.937 C1828.309,19.306 1828.267,17.665 1828.978,16.022 C1831.482,10.239 1846.534,4.570 1864.623,5.031 C1874.110,5.272 1882.480,7.092 1889.692,9.091 C1902.495,12.638 1911.752,16.333 1920.000,20.844 L1920.000,180.000 L0.000,180.000 L0.000,16.901 C6.446,15.092 12.870,13.869 21.170,13.035 Z"/>
</svg>