<svg 
 xmlns="http://www.w3.org/2000/svg"
 xmlns:xlink="http://www.w3.org/1999/xlink"
 width="1920px" height="552px">
<path fill-rule="evenodd"  fill="rgb(247, 237, 230)"
 d="M0.000,552.000 L0.000,112.000 L1920.000,112.000 L1920.000,552.000 L0.000,552.000 ZM0.000,29.999 C6.446,26.788 12.870,24.618 21.170,23.137 C50.803,17.852 87.832,29.127 91.633,46.724 C103.538,37.553 127.747,35.443 145.837,40.299 C163.927,45.153 175.978,55.641 180.903,66.705 C188.799,50.778 219.893,40.309 248.555,42.762 C276.977,45.195 300.472,59.119 306.223,75.202 C312.266,73.672 318.959,72.976 325.503,73.440 C344.693,74.802 360.274,84.351 364.521,95.126 C378.982,78.615 416.181,69.936 446.744,75.941 C468.862,80.288 485.374,91.926 490.426,104.881 C494.469,103.879 498.749,103.187 502.874,102.892 C503.463,102.850 504.057,102.834 504.648,102.799 C505.238,102.403 505.803,101.999 506.415,101.612 C537.517,81.927 601.326,80.024 627.346,101.984 C649.940,91.297 683.076,89.719 709.936,96.086 C722.550,79.554 745.593,65.432 775.590,60.343 C811.598,54.234 856.133,64.516 867.960,84.880 C882.124,72.260 911.684,66.051 936.788,70.424 C949.073,72.564 959.747,77.157 967.398,83.036 C973.808,75.745 987.074,71.214 1000.254,67.977 C1027.819,61.209 1059.072,58.126 1088.093,62.479 C1117.113,66.832 1143.176,79.533 1150.299,96.181 C1158.943,84.780 1181.226,77.278 1202.876,78.480 C1213.285,79.057 1223.138,81.639 1231.101,85.499 C1252.980,74.013 1283.559,67.819 1313.175,69.767 C1353.079,72.392 1388.851,89.620 1400.121,111.642 C1405.731,110.308 1411.596,109.711 1417.495,109.689 C1422.734,105.536 1428.629,101.649 1435.192,98.126 C1451.439,89.406 1474.462,83.469 1496.596,82.355 C1495.054,77.705 1495.367,72.887 1498.051,68.396 C1508.328,51.205 1543.908,41.766 1575.331,44.562 C1596.577,46.451 1615.580,52.889 1631.083,61.542 C1632.899,58.551 1635.773,55.792 1639.822,53.526 C1660.230,42.112 1698.216,45.681 1714.441,59.108 C1694.390,43.537 1679.733,19.778 1704.472,6.588 C1720.502,-1.958 1746.130,-1.236 1766.509,3.387 C1793.794,9.578 1816.196,22.070 1828.857,37.164 C1828.309,34.267 1828.267,31.356 1828.978,28.439 C1831.482,18.173 1846.534,8.111 1864.623,8.929 C1874.110,9.358 1882.480,12.589 1889.692,16.136 C1902.495,22.433 1911.752,28.991 1920.000,36.999 L1920.000,111.999 L0.000,111.999 L0.000,29.999 Z"/>
</svg>