<svg xmlns="http://www.w3.org/2000/svg" width="151" height="141"><path fill-rule="evenodd" fill-opacity=".102" fill="#1AB69D" d="M146.729 49.645c-.933-2.197-2.047-4.45-3.349-6.787-7.384-13.252-20.767-22.176-34.838-27.655C94.47 9.724 79.466 7.234 64.792 3.709 58.552 2.21 52.27.508 45.855.556c-13.425.1-26.03 8.155-33.761 19.213C4.364 30.827 1.07 44.54.526 58.054.037 70.181 1.822 82.868 8.579 92.916c3.614 5.376 8.48 9.754 13.293 14.071l22.5 20.185c4.047 3.631 8.154 7.303 12.988 9.77 15.867 8.097 39.977 1.559 52.491-9.669 2.999-2.692 6.159-5.164 9.386-7.57 6.197-4.62 12.563-9.18 17.515-15.205 4.218-5.13 7.463-10.985 9.687-17.255 5.065-14.276 5.623-25.04.29-37.598Z"/></svg>