<svg xmlns="http://www.w3.org/2000/svg" width="21" height="18"><path fill-rule="evenodd" fill="#181818" d="M15.414 2.515c-.567-1.529-1.79-.83-1.433-.966-.781.372-2.541.966-2.541.966V1.256c0-.357-.04-.629-.662-.629H.842c-.419 0-.663.233-.663.629v15.736c0 .398.244.63.663.63h9.936c.418 0 .662-.232.662-.63V5.662s3.164 8.52 3.846 10.508c-.01-.178.287.526 1.453.193l3.037-1.155c1.194.382.627-.594.734-1.363l-5.096-11.33Zm-3.819 1.208L14.208 2.7l1.019 2.581-2.371.973-1.261-2.531Zm-1.48 1.939H6.803V1.885h3.312v3.777ZM5.478 1.885v3.777H1.504V1.885h3.974ZM1.504 6.921h3.974v9.442H1.504V6.921Zm5.299 0h3.312v9.442H6.803V6.921Zm6.514.372L15.78 6.4l3.085 7.994-2.474.951-3.074-8.052Z"/></svg>