<svg xmlns="http://www.w3.org/2000/svg" width="20" height="20"><path fill-rule="evenodd" fill="#181818" d="M10.369 19.99C5.8 19.99.898 14.917.898 9.627.898 4.337 5.8.156 10.369.156c5.29 0 9.472 4.181 9.472 9.471S15.659 19.99 10.369 19.99Zm0-18.353c-4.229 0-7.991 3.762-7.991 7.991 0 4.227 3.762 7.991 7.991 7.991 4.228 0 7.991-3.762 7.991-7.991 0-4.229-3.763-7.991-7.991-7.991Zm3.63 10.362h-4c-.337 0-1-.662-1-1v-6c0-.338.237-.889.789-.889.424 0 .708.093.71.43v5.884h3.987c.337 0 .509.361.509.699 0 .461-.665.977-.995.876Z"/></svg>