<svg xmlns="http://www.w3.org/2000/svg" width="60" height="61"><path fill-rule="evenodd" d="M51.484 21.666a2.842 2.842 0 0 0-2.47 4.257l3.244 5.678v5.981a9.961 9.961 0 0 0-1.935-1.902v-1.6a7.578 7.578 0 0 0-7.576-7.576h-3.809l-5.067-2.533v-1.679a8.966 8.966 0 0 0 2.739-3.355 7.872 7.872 0 0 0 5.971 2.729h3.871a.967.967 0 0 0 .433-1.834 5.996 5.996 0 0 1-3.336-5.397V7.15a6.77 6.77 0 0 0-11.704-4.637 8.694 8.694 0 0 0-10.554 8.508v3.871c0 .304.143.592.386.774a.956.956 0 0 0 .735.158 9.875 9.875 0 0 0 3.717 6.459v1.688l-5.066 2.533h-3.81a7.578 7.578 0 0 0-7.575 7.576v1.6a9.966 9.966 0 0 0-1.936 1.902v-5.981l3.246-5.681a2.843 2.843 0 0 0-2.471-4.254 5.576 5.576 0 0 0-4.874 2.867A29.001 29.001 0 0 0 .001 38.595v7.028a5.072 5.072 0 0 0 8.661 3.587l9.303-9.302 1.804 5.419a10.782 10.782 0 0 1-2.605 11.032L14.8 58.723a.967.967 0 0 0 .684 1.651h29.032a.967.967 0 0 0 .684-1.652l-2.363-2.364a10.782 10.782 0 0 1-2.606-11.032l1.805-5.419 9.303 9.302A5.074 5.074 0 0 0 60 45.623v-7.028a29.008 29.008 0 0 0-3.644-14.061 5.577 5.577 0 0 0-4.872-2.868Zm-.789 3.295a.91.91 0 0 1 .789-1.36c1.322 0 2.54.717 3.182 1.872a26.94 26.94 0 0 1 2.109 4.903h-2.988l-3.092-5.415ZM36.774 2.311a4.845 4.845 0 0 1 4.839 4.839v7.285a7.926 7.926 0 0 0 2.006 5.295h-1.038a5.945 5.945 0 0 1-5.173-3c.071-.296.133-.598.182-.907a.988.988 0 0 0 .152.036.968.968 0 0 0 .968-.967v-3.871a8.71 8.71 0 0 0-4.794-7.769 4.812 4.812 0 0 1 2.858-.941Zm-13.548 8.71a6.774 6.774 0 0 1 13.548 0v1.198l-3.127-3.753a.968.968 0 0 0-1.662.314 4.939 4.939 0 0 1-3.258 3.162l-5.501 1.65v-2.571Zm1.065 4.274 4.997-1.499a6.869 6.869 0 0 0 3.843-2.933l2.674 3.212c-.065 4.198-2.641 7.591-5.805 7.591-2.816 0-5.225-2.744-5.709-6.371Zm3.239 10.144a.967.967 0 0 0 .535-.87v-1.286a6.063 6.063 0 0 0 3.871 0v1.286c0 .366.207.702.535.865l1.846.925 1.314 7.887H24.369l1.314-7.887 1.847-.92Zm-22.193.04a3.64 3.64 0 0 1 3.18-1.878.907.907 0 0 1 .788 1.36l-3.092 5.415H3.225a26.952 26.952 0 0 1 2.112-4.903v.006Zm1.956 22.363a3.14 3.14 0 0 1-5.357-2.219v-7.028a26.98 26.98 0 0 1 .755-6.284h3.116v9.677c0 .488.364.901.85.96a.977.977 0 0 0 1.056-.726l.122-.483a8.041 8.041 0 0 1 3.347-4.751.963.963 0 0 0 .431-.807V34.08c0-1.496.595-2.931 1.652-3.989a5.644 5.644 0 0 1 3.988-1.651h2.771l-2.503 9.175L7.293 47.842Zm34.175 9.885.712.712H17.82l.712-.712a12.549 12.549 0 0 0 3.62-10.555 24.616 24.616 0 0 1 15.697 0 12.545 12.545 0 0 0 3.619 10.555Zm-3.074-13.016c-.061.183-.107.368-.159.553a26.574 26.574 0 0 0-16.469 0c-.053-.185-.097-.37-.16-.553l-2.207-6.623 2.709-9.944 1.432-.716-1.27 7.626a.967.967 0 0 0 .956 1.127h13.548a.968.968 0 0 0 .954-1.127l-1.27-7.626 1.432.716 2.71 9.944-2.206 6.623Zm19.671.912a3.138 3.138 0 0 1-5.358 2.219L42.484 37.615l-2.507-9.175h2.77a5.642 5.642 0 0 1 5.64 5.64v2.101c0 .324.161.626.431.806a8.033 8.033 0 0 1 3.343 4.75l.122.484a.968.968 0 0 0 1.911-.233v-9.677h3.116c.497 2.057.75 4.167.755 6.284v7.028Z"/></svg>