<svg xmlns="http://www.w3.org/2000/svg" width="61" height="61"><path fill-rule="evenodd" d="M52.668 50.747a34.034 34.034 0 0 1 2.393 1.771c2.476 2.029 3.44 3.626 3.033 5.027-.407 1.402-2.078 2.238-5.256 2.63a41.19 41.19 0 0 1-4.916.251c-1.355 0-2.827-.042-4.394-.129-6.726-.372-14.652-1.522-18.846-2.736-4.364-1.263-6.762-2.595-8.018-4.454a5.798 5.798 0 0 1-.956-2.564 38.234 38.234 0 0 1-2.172 2.193c-2.697 2.5-4.999 3.76-6.864 3.76a3.72 3.72 0 0 1-1.038-.142c-2.269-.657-3.75-2.304-3.772-4.197-.011-.926.356-2.969 3.424-4.635a14.19 14.19 0 0 1-2.186-1.09C.104 44.553-.004 42.364.433 40.858a4.2 4.2 0 0 1 1.883-2.503V15.983c.001-.223.074-.44.207-.62L8.527 7.37V1.513c0-.571.463-1.034 1.034-1.034h18.632c.571 0 1.035.463 1.035 1.034V7.37l6.003 7.993c.133.18.206.397.207.62v6.133c1.979.045 4.404.788 7.245 2.899l.154-.112c.005-2.107-.605-3.78-1.204-5.42-1.029-2.819-2.093-5.734.125-10.164l1.851.925c-1.818 3.633-1.029 5.795-.031 8.532.529 1.449 1.091 2.992 1.276 4.837 3.867-2.116 6.812-1.64 8.726-.721 4.628 2.222 6.7 8.514 6.7 13.764 0 5.793-3.114 11.413-7.612 14.091Zm-34.289 1.204c.95 1.406 3.072 2.524 6.88 3.626 2.643.765 6.84 1.504 11.265 2.03l1.111-3.83 1.988.576-1.011 3.483c1.698.172 3.4.308 5.031.398 9.718.538 12.319-.765 12.463-1.262.111-.384-.757-1.955-5.065-4.827l-.9 3.1-1.988-.575 1.07-3.687a82.558 82.558 0 0 0-2.973-1.734c-4.546-2.533-9.943-5.049-14.014-6.576l-2.555 8.803-1.988-.576 2.588-8.916a30.702 30.702 0 0 0-.989-.306c-2.332-.675-4.132-1.007-5.536-1.007-.887 0-1.616.133-2.218.397-1.419.619-2.38 2.106-3.211 4.97-.83 2.863-.815 4.632.052 5.913Zm-.512-14.134c.282 1.066.499 2.107.661 3.01a5.806 5.806 0 0 1 2.419-1.751V25.287H4.386l.001 12.371a8.789 8.789 0 0 1 1.245-.085h.039c.816.012 1.63.093 2.432.245-1.7-3.046-.916-4.967-.412-5.744 1.033-1.588 3.167-2.189 5.436-1.532 2.023.586 3.617 3.033 4.74 7.275ZM2.421 41.433c-.582 2.005 1.412 3.638 6.094 4.994a1.034 1.034 0 0 1 .024 1.978c-3.418 1.077-4.621 2.632-4.608 3.727.012.961.906 1.839 2.28 2.236 2.241.649 6.916-3.719 9.609-7.113l1.04-3.585c-.457-4.307-2.069-10.494-4.31-11.143-1.373-.397-2.599-.133-3.123.673-.598.919-.413 2.875 1.897 5.61a1.034 1.034 0 0 1-1.079 1.66c-1.895-.549-3.443-.823-4.652-.823-1.779 0-2.826.593-3.172 1.786Zm1.965-18.214h16.561v-6.202H4.386v6.202Zm1.035-8.269h16.044l4.657-6.201H10.079L5.421 14.95ZM27.158 2.546H10.596v4.135h16.562V2.546Zm1.035 6.891-4.14 5.513h8.28l-4.14-5.513Zm5.175 7.58H23.017v21.612c.734-.047 1.47-.027 2.199.06a16.248 16.248 0 0 1-.128-2.033c0-5.25 2.071-11.542 6.699-13.764a7.93 7.93 0 0 1 1.581-.56v-5.315Zm19.315 7.739c-2.224-1.068-4.903-.628-7.818 1.26-.094 1-.285 1.989-.572 2.952.447-.27.819-.647 1.081-1.098l1.792 1.035a5.18 5.18 0 0 1-4.483 2.582 5.179 5.179 0 0 1-4.482-2.582l1.792-1.035a3.118 3.118 0 0 0 2.004 1.471 15.77 15.77 0 0 0 .57-1.998 1.017 1.017 0 0 1-.53-.216c-3.509-2.804-6.743-3.624-9.353-2.371-3.254 1.561-5.526 6.455-5.526 11.9.001.802.069 1.603.203 2.394.772.167 1.605.381 2.508.642 4.194 1.214 11.508 4.474 17.391 7.752 1.23.685 2.378 1.36 3.428 2.015 4.321-2.014 7.522-7.41 7.522-12.803 0-5.445-2.273-10.339-5.527-11.9Zm-4.344-5.671a5.197 5.197 0 0 1-4.481-2.583 1.036 1.036 0 0 1 0-1.036 5.177 5.177 0 0 1 8.962 0c.186.32.186.715 0 1.036a5.198 5.198 0 0 1-4.481 2.583Zm0-4.135a3.119 3.119 0 0 0-2.312 1.033 3.1 3.1 0 0 0 4.625 0 3.124 3.124 0 0 0-2.313-1.033Z"/></svg>