<svg xmlns="http://www.w3.org/2000/svg" width="56" height="61"><path fill-rule="evenodd" d="M19.059 46.861a7.595 7.595 0 0 1-5.776.942c-4.104-.962-6.661-5.085-5.699-9.192v-.002c.966-4.102 5.091-6.657 9.195-5.696 4.104.963 6.66 5.086 5.698 9.192a7.596 7.596 0 0 1-3.418 4.756Zm-2.815-11.667a5.318 5.318 0 0 0-6.38 3.952 5.312 5.312 0 0 0 3.955 6.376 5.263 5.263 0 0 0 4.006-.653 5.263 5.263 0 0 0 2.37-3.297 5.31 5.31 0 0 0-3.951-6.378Zm-1.132 7.654a1.17 1.17 0 0 1-.82.382l-.047.001a1.17 1.17 0 0 1-.801-.317l-1.524-1.431a1.17 1.17 0 1 1 1.604-1.706l.656.615 2.294-2.525a1.172 1.172 0 0 1 1.734 1.576l-3.096 3.405ZM27.72 29.401H9.617a1.172 1.172 0 1 1 0-2.342H27.72a1.172 1.172 0 1 1 0 2.342ZM8.445 16.012c0-.647.525-1.172 1.172-1.172h26.577a1.172 1.172 0 1 1 0 2.343H9.617a1.172 1.172 0 0 1-1.172-1.171Zm22.609 7.28H9.617a1.172 1.172 0 1 1 0-2.342h21.437a1.17 1.17 0 1 1 0 2.342Zm22.878 30.316c-2.023 4.634-5.692 7.293-10.066 7.293h-6.547c-4.079 0-7.544-2.312-9.633-6.381H6.289a5.388 5.388 0 0 1-5.382-5.383V35.394a1.17 1.17 0 1 1 2.343 0v13.743a3.043 3.043 0 0 0 3.039 3.041h20.416a19.824 19.824 0 0 1-.919-8c.309-3.401 1.511-6.385 3.383-8.403 1.359-1.464 3.025-2.405 4.951-2.796.103-.021.208-.04.313-.057-.612-.991-1.032-2.216-1.249-3.673a1.171 1.171 0 0 1 1.102-1.343c2.924-.141 4.86.876 6.03 2.365.185-.432.411-.869.679-1.298V8.808a3.042 3.042 0 0 0-3.039-3.037h-5.421v.522a2.146 2.146 0 0 1-2.144 2.143h-16.54a2.146 2.146 0 0 1-2.144-2.143v-.522H6.289A3.042 3.042 0 0 0 3.25 8.808v17.235a1.172 1.172 0 0 1-2.343 0V8.808a5.387 5.387 0 0 1 5.382-5.379h5.418v-.322c0-1.181.962-2.143 2.144-2.143h16.54c1.182 0 2.144.962 2.144 2.143v.322h5.421a5.387 5.387 0 0 1 5.382 5.379v17.699c1.797-1.241 4.121-1.8 6.932-1.663a1.174 1.174 0 0 1 1.102 1.343c-.465 3.09-1.526 5.466-3.165 7.1 1.448.489 2.726 1.322 3.809 2.488 1.872 2.018 3.073 5.002 3.382 8.403.295 3.24-.226 6.589-1.466 9.43ZM30.192 3.307H14.05v2.787h16.142V3.307Zm7.993 28.088c-.588-.588-1.384-.954-2.377-1.095.357 1.176.921 2.017 1.702 2.551.548.06 1.107.156 1.679.289-.175-.576-.478-1.219-1.004-1.745ZM48.8 27.183c-2.108.109-3.768.757-4.947 1.931-1.257 1.252-1.76 2.873-1.961 4.048a13.444 13.444 0 0 1 3.055-.385c1.932-.965 3.202-2.801 3.853-5.594Zm1.498 10.186c-2.18-2.349-5.402-2.867-9.317-1.497a1.19 1.19 0 0 1-.777 0c-1.429-.5-2.765-.748-3.992-.748-2.136 0-3.94.752-5.325 2.245-3.115 3.355-3.768 10.076-1.487 15.301l.094.212.006.013c1.016 2.216 3.319 5.663 7.819 5.663h6.547c4.654 0 6.959-3.688 7.919-5.887 2.281-5.225 1.627-11.947-1.487-15.302Zm-48.22-7.844c.647 0 1.172.524 1.172 1.17v.024a1.17 1.17 0 0 1-2.343 0v-.024c0-.646.524-1.17 1.171-1.17Z"/></svg>