<svg xmlns="http://www.w3.org/2000/svg" width="41" height="35"><path fill-rule="evenodd" d="M20.377 34.029c-.16 0-.317-.037-.46-.108-.107-.055-2.668-1.355-6.014-3.767-3.087-2.23-7.447-5.865-10.662-10.542a18.4 18.4 0 0 1-1.27-2.136.998.998 0 0 1 .044-.978c.185-.296.511-.476.862-.476h6.52l1.652-2.344c.203-.288.542-.451.895-.428.354.022.67.225.834.536l1.983 3.751 3.335-7.08a1.016 1.016 0 0 1 1.91.21l2.081 9.39 2.936-6.229c.163-.346.509-.57.895-.579.385-.01.742.199.921.538l2.159 4.085.999-1.42c.19-.268.5-.429.831-.429h6.409c1.932-4.267 1.331-8.516-1.653-11.461-3.411-3.366-8.96-3.366-12.371 0-.578.571-1.307 1.247-2.078 1.963l-.064.058c-.39.362-.996.362-1.385 0l-.068-.061c-.771-.719-1.498-1.389-2.076-1.962-3.41-3.365-8.96-3.365-12.37 0-2.257 2.227-3.177 5.24-2.597 8.482a1.004 1.004 0 0 1-.819 1.165 1.017 1.017 0 0 1-1.176-.813C.232 11.459.331 9.583.874 7.818a11.145 11.145 0 0 1 2.867-4.682c4.2-4.143 11.032-4.143 15.232 0 .399.395.882.85 1.404 1.337a63.67 63.67 0 0 0 1.405-1.337c4.199-4.143 11.032-4.143 15.231 0A11.12 11.12 0 0 1 40.284 9.7c.318 2.51-.202 5.197-1.501 7.774-.176.35-.539.567-.933.556h-6.492l-1.653 2.344a1.017 1.017 0 0 1-1.73-.104l-1.983-3.751-3.335 7.077c-.184.39-.598.62-1.029.572a1.011 1.011 0 0 1-.879-.782l-2.081-9.39-2.936 6.229a1.01 1.01 0 0 1-.894.578 1.013 1.013 0 0 1-.921-.537l-2.159-4.086-1.001 1.42c-.19.269-.499.429-.83.43H4.618c.096.15.196.299.298.448 3.043 4.426 7.199 7.896 10.15 10.031a51.448 51.448 0 0 0 5.31 3.378c1.852-1.013 8.91-5.121 14.016-11.465a1.01 1.01 0 0 1 .681-.388 1.009 1.009 0 0 1 1.133.895.995.995 0 0 1-.23.745c-3.231 4.019-7.169 7.129-9.904 9.033-2.963 2.062-5.144 3.17-5.235 3.215-.143.071-.3.108-.46.107Z"/></svg>