<svg xmlns="http://www.w3.org/2000/svg" width="34" height="45"><path fill-rule="evenodd" fill="#EE4A62" d="M30.483 44.965H3.517L0 32.755h3.517c.583-2.978 2.832-6.106 5.862-6.106h3.517v-1.222c-2.481-1.42-3.807-3.671-4.4-6.581-1.606-.448-2.791-1.975-2.791-3.785 0-1.703 1.041-2.527 2.502-3.066l.008-2.158C8.215 4.795 12.156.981 17 .981s8.785 3.815 8.785 8.856v1.53c1.46.539 2.51 1.991 2.51 3.694 0 1.81-1.186 3.337-2.791 3.785-.593 2.907-1.917 5.159-4.401 6.581v1.222h3.517c3.031 0 5.28 3.128 5.863 6.106H34l-3.517 12.21ZM23.448 9.553c0-4.219-3.63-6.091-6.445-6.091-2.854 0-6.451 2.489-6.451 6.091v2.442h3.517c1.565 0 2.777-1.878 3.323-3.404l1.176-3.29 1.177 3.29c.546 1.526 2.137 2.182 3.703 2.182v-1.22Zm0 8.547v-1.221h1.172c.692 0 1.165-1.097 1.165-1.818 0-.72-.473-1.845-1.165-1.845h-1.172c-1.828 0-3.708-.299-4.88-1.677-1.171 1.378-2.672 2.898-4.499 2.898h-4.69c-.692 0-1.164-.096-1.164.624 0 .721.472 1.818 1.164 1.818h1.173V18.1c.644 5.422 4.604 6.036 4.689 6.106v2.443h3.517v-2.443c.184-.151 4.03-.555 4.69-6.106Zm1.172 10.991H9.379c-1.636 0-2.999 2.143-3.517 3.664h22.276c-.518-1.521-1.881-3.664-3.518-3.664ZM3.517 35.196l2.345 7.327h22.276l2.345-7.327H3.517Zm11.724 2.443h2.345v2.442h-2.345v-2.442Z"/></svg>