<svg xmlns="http://www.w3.org/2000/svg" width="47" height="40"><path fill-rule="evenodd" fill="#8E56FF" d="M43.248 20.613v8.962c0 .476-.356 1.474-1.212 1.937h2.413c1.337 0 2.481.513 2.481 1.859 0 3.736-2.387 6.626-6.101 6.626H7.045c-3.714 0-6.101-2.89-6.101-6.626 0-1.346 1.145-1.859 2.482-1.859h2.413c-.857-.385-1.207-1.948-1.207-2.423V13.33c0-2.241 1.391-3.636 3.62-3.636h16.892V3.633c0-2.243 2.597-3.636 4.826-3.636h13.272c2.228 0 3.62 1.393 3.62 3.636v13.334c0 2.121-1.554 3.462-3.614 3.646ZM3.426 33.937c.139 2.116 1.481 3.635 3.619 3.635h33.784c2.138 0 3.48-1.519 3.62-3.635H3.426Zm12.065-9.698c-1.196 0-2.413 1.607-2.413 2.424v4.849h4.826v-4.849c0-.574-.885-2.424-2.413-2.424Zm1.351-3.519c0-.848-.685-1.537-1.527-1.537-.842 0-1.527.689-1.527 1.537 0 .847.685 1.536 1.527 1.536.842 0 1.527-.689 1.527-1.536Zm8.497 1.267a2.698 2.698 0 0 1-.946-2.934l.751-3.299v-3.636H8.252c-.743 0-1.207.466-1.207 1.212v15.759c0 .746.464 2.423 1.207 2.423h2.413v-4.849c0-1.248.34-2.533 1.341-3.31a4.243 4.243 0 0 1-.913-2.633c0-2.342 1.894-4.246 4.222-4.246 2.328 0 4.221 1.904 4.221 4.246a4.24 4.24 0 0 1-.911 2.63c.023.018.046.034.069.053.992.797 1.623 2.089 1.623 3.26v4.849h18.099c.743 0 2.413-1.677 2.413-2.423v-8.486l-10.039.026-2.389 1.503a2.675 2.675 0 0 1-1.43.416 2.67 2.67 0 0 1-1.632-.561Zm19.11-18.354c0-.747-.818-1.076-1.561-1.076H29.506c-.743 0-1.949.329-1.949 1.076v12.121l-1.207 4.849 3.34-2.477c.214-.136.027.053.28.053h13.272c.743 0 1.207-.465 1.207-1.212V3.633Zm-4.827 4.849h-7.239l.176-.142a1.351 1.351 0 0 1-1.347-1.355c0-.75.427-.927 1.171-.927h7.239c.745 0 1.47.177 1.47.927 0 .748-.725 1.497-1.47 1.497Zm-4.907 3.654h2.874a1.35 1.35 0 0 1 1.347 1.355c0 .749-.983 1.052-1.727 1.052h-2.413c-.744 0-1.428-.303-1.428-1.052a1.35 1.35 0 0 1 1.347-1.355Zm-7.158 3.618c.037-.126 0 .132 0 0Z"/></svg>